<svg xmlns="http://www.w3.org/2000/svg" viewBox="0 0 567.33 567.33"><title>innerRing</title><circle cx="283.67" cy="283.67" r="147.5" style="fill:none;stroke:#2738be;stroke-miterlimit:10;stroke-width:0.75px"/><circle cx="283.67" cy="283.67" r="144.5" style="fill:none;stroke:#2738be;stroke-miterlimit:10;stroke-width:0.75px"/><polygon points="289.84 136.17 287.28 144.04 284.72 136.17 289.84 136.17" style="fill:#2738be"/><polygon points="152.89 353.51 160.98 351.74 155.48 357.93 152.89 353.51" style="fill:#2738be"/><polygon points="411.75 356.62 406 350.67 414.15 352.1 411.75 356.62" style="fill:#2738be"/><polygon points="430.76 298.73 423.12 295.56 431.17 293.62 430.76 298.73" style="fill:#2738be"/><polygon points="424.62 239.77 416.34 239.91 422.95 234.94 424.62 239.77" style="fill:#2738be"/><polygon points="394.84 186.27 387.33 189.74 391.37 182.51 394.84 186.27" style="fill:#2738be"/><polygon points="229.28 146.7 230.17 154.93 224.61 148.8 229.28 146.7" style="fill:#2738be"/><polygon points="347.19 150.25 341.69 156.44 342.5 148.2 347.19 150.25" style="fill:#2738be"/><polygon points="145.18 232.17 151.85 237.07 143.57 237.03 145.18 232.17" style="fill:#2738be"/><polygon points="136.17 293.08 144.26 294.82 136.69 298.17 136.17 293.08" style="fill:#2738be"/><polygon points="178.63 180.44 182.78 187.6 175.21 184.25 178.63 180.44" style="fill:#2738be"/></svg>